# xmcd
#
# Track frame offsets:
#	150
#	9518
#	20851
#	38815
#	59455
#	77557
#	92178
#	114432
#	129036
#	139091
#	150576
#	167527
#	194942
#
# Disc length: 3518 seconds
#
# Revision: 0
# Processed by: cddbd v1.5.2PL0 Copyright (c) Steve Scherf et al.
# Submitted via: dBpowerAMP V4.0
#
DISCID=a60dbc0d
DTITLE=Brody Douglass Hunt and His Phantom Thunder Wranglers - Smoke and Mirrors
DYEAR=2008
DGENRE=Country
TTITLE0=You Took the Yodel (Out of me)
TTITLE1=Need A Rock
TTITLE2=High Stumpin' Snags
TTITLE3=Pine, Pine, Pine
TTITLE4=Green, Gold and Brown
TTITLE5=Smoke and Mirrors
TTITLE6=That's Your Man?
TTITLE7=What About Me, David?
TTITLE8=Get Gone
TTITLE9=Piece of Mind
TTITLE10=Corndog Gal
TTITLE11=Fall on my Knees
TTITLE12=Dogwoods
EXTD=
EXTT0=
EXTT1=
EXTT2=
EXTT3=
EXTT4=
EXTT5=
EXTT6=
EXTT7=
EXTT8=
EXTT9=
EXTT10=
EXTT11=
EXTT12=
PLAYORDER=
